<svg xmlns="http://www.w3.org/2000/svg" viewBox="0 0 48 48" width="48" height="48"><defs><linearGradient id="g" x1="0" y1="0" x2="1" y2="1"><stop offset="0%" stop-color="#2994ff"/><stop offset="100%" stop-color="#0a84ff"/></linearGradient></defs><rect width="48" height="48" rx="12" fill="#0f1113"/><path fill="url(#g)" d="M24 10c3.3 0 6 2.7 6 6 0 2-.9 3.8-2.4 4.9.2.4.4.8.6 1.3.8 2 1.4 3.7 3.2 4.6 1.8.9 3.7.6 5.6-.4-.7 3.7-3.8 6.6-7.6 7.4-3.8.8-7.7-.6-10.1-3.7-2.4 3.1-6.3 4.5-10.1 3.7-3.8-.8-6.9-3.7-7.6-7.4 1.9 1 3.8 1.3 5.6.4 1.8-.9 2.4-2.6 3.2-4.6.2-.5.4-.9.6-1.3C14.9 19.8 14 18 14 16c0-3.3 2.7-6 6-6 1.7 0 3.2.7 4.2 1.8 1-1.1 2.5-1.8 4.2-1.8Z"/></svg>